<svg xmlns="http://www.w3.org/2000/svg" viewBox="0 0 166 49" width="166" height="49">
	<defs>
		<clipPath clipPathUnits="userSpaceOnUse" id="cp1">
			<path d="M72.01 0.03L165.97 0.03L165.97 48.32L72.02 48.32L72.01 0.03Z" />
		</clipPath>
	</defs>
	<style>
		tspan { white-space:pre }
		.shp0 { fill: #ffffff } 
	</style>
	<g id="Layer">
		<path id="Layer" fill-rule="evenodd" class="shp0" d="M27.95 1L56 14.18L56 14.21L27.95 27.38L0 14.25L0 14.13L27.95 1ZM10.08 14.19L27.95 22.59L45.83 14.19L27.95 5.79L10.08 14.19L10.08 14.19ZM56 19.51L56 24.29L27.95 37.3L0 24.33L0 19.55L27.95 32.48L56 19.51ZM27.95 42.19L56 29.21L56 33.99L27.95 47L0 34.03L0 29.25L27.95 42.19Z" />
		<g id="Layer">
			<g id="Clip-Path" clip-path="url(#cp1)">
				<path id="Layer" fill-rule="evenodd" class="shp0" d="M164.91 29.53C164.73 29.93 164.54 30.32 164.33 30.7C164.12 31.08 163.9 31.45 163.65 31.81C163.4 32.17 163.14 32.52 162.86 32.85C162.58 33.18 162.28 33.5 161.97 33.8C160.72 35.01 159.26 35.96 157.58 36.66C155.9 37.36 154.11 37.71 152.21 37.71C150.31 37.71 148.53 37.36 146.86 36.66C146.46 36.49 146.06 36.3 145.67 36.1C145.29 35.89 144.91 35.67 144.54 35.43C144.18 35.19 143.82 34.93 143.48 34.65C143.14 34.38 142.81 34.09 142.5 33.78C142.18 33.48 141.89 33.16 141.61 32.82C141.32 32.49 141.06 32.14 140.81 31.78C140.57 31.42 140.34 31.04 140.13 30.66C139.92 30.28 139.73 29.88 139.56 29.48C138.84 27.83 138.49 26.05 138.49 24.15C138.49 22.28 138.85 20.52 139.58 18.87C139.75 18.47 139.95 18.07 140.16 17.69C140.37 17.3 140.61 16.93 140.85 16.56C141.1 16.2 141.37 15.85 141.65 15.51C141.93 15.18 142.23 14.85 142.54 14.54C142.85 14.23 143.18 13.94 143.52 13.66C143.86 13.39 144.22 13.13 144.58 12.88C144.95 12.64 145.33 12.41 145.72 12.21C146.1 12 146.5 11.81 146.91 11.65C147.33 11.47 147.75 11.32 148.19 11.18C148.62 11.05 149.06 10.94 149.5 10.85C149.95 10.77 150.4 10.7 150.85 10.66C151.3 10.61 151.75 10.59 152.21 10.6C154.11 10.6 155.9 10.95 157.58 11.65C159.26 12.34 160.72 13.3 161.97 14.5C163.21 15.7 164.19 17.14 164.91 18.8C165.62 20.47 165.98 22.25 165.98 24.15C165.98 26.08 165.62 27.88 164.91 29.53ZM159.56 24.15C159.56 23.64 159.52 23.13 159.43 22.63C159.34 22.13 159.2 21.63 159.01 21.16C158.83 20.68 158.6 20.23 158.33 19.79C158.06 19.36 157.75 18.95 157.4 18.58C157.23 18.4 157.06 18.23 156.88 18.08C156.7 17.92 156.51 17.77 156.31 17.63C156.12 17.49 155.91 17.35 155.7 17.23C155.49 17.11 155.28 17 155.06 16.91C154.84 16.81 154.61 16.72 154.37 16.64C154.14 16.57 153.91 16.5 153.67 16.45C153.43 16.4 153.18 16.36 152.94 16.34C152.7 16.32 152.45 16.3 152.21 16.3C151.2 16.3 150.25 16.5 149.36 16.91C149.14 17 148.92 17.11 148.71 17.23C148.5 17.35 148.3 17.49 148.1 17.63C147.91 17.77 147.72 17.92 147.54 18.08C147.35 18.23 147.18 18.4 147.02 18.58C146.67 18.95 146.36 19.36 146.09 19.79C145.82 20.23 145.59 20.68 145.4 21.16C145.22 21.64 145.08 22.13 144.99 22.63C144.9 23.13 144.85 23.64 144.86 24.15C144.85 24.66 144.9 25.17 144.99 25.68C145.08 26.18 145.22 26.67 145.4 27.15C145.59 27.62 145.82 28.08 146.09 28.51C146.36 28.95 146.67 29.35 147.02 29.73C147.18 29.9 147.35 30.07 147.54 30.23C147.72 30.39 147.91 30.54 148.1 30.68C148.3 30.82 148.5 30.95 148.71 31.07C148.92 31.19 149.14 31.3 149.36 31.4C149.58 31.5 149.81 31.59 150.04 31.66C150.27 31.74 150.51 31.8 150.75 31.85C150.99 31.9 151.23 31.94 151.48 31.97C151.72 31.99 151.96 32 152.21 32C153.22 32 154.17 31.8 155.06 31.4C155.28 31.3 155.5 31.19 155.7 31.07C155.91 30.95 156.12 30.82 156.31 30.68C156.51 30.54 156.7 30.39 156.88 30.23C157.06 30.07 157.23 29.9 157.4 29.73C157.75 29.35 158.06 28.95 158.33 28.51C158.6 28.08 158.83 27.62 159.01 27.15C159.2 26.67 159.34 26.18 159.43 25.67C159.52 25.17 159.56 24.66 159.56 24.15L159.56 24.15ZM135.84 37.08C135.7 37.14 135.56 37.19 135.42 37.24C135.27 37.29 135.13 37.33 134.98 37.37C134.84 37.41 134.69 37.45 134.54 37.48C133.91 37.63 133.24 37.71 132.56 37.71C132.33 37.71 132.1 37.7 131.87 37.69C131.64 37.67 131.41 37.65 131.18 37.61C130.95 37.58 130.72 37.54 130.49 37.5C130.27 37.45 130.04 37.39 129.82 37.33C129.61 37.27 129.4 37.2 129.2 37.12C129 37.04 128.8 36.94 128.61 36.84C128.41 36.74 128.23 36.62 128.05 36.5C127.87 36.38 127.69 36.24 127.53 36.1C126.87 35.54 126.35 34.8 125.97 33.9C125.58 32.99 125.39 31.9 125.39 30.62L125.39 0.03L131.94 0.03L131.94 29.5C131.94 30.57 132.15 31.31 132.58 31.71C133.01 32.11 133.53 32.31 134.12 32.31C134.86 32.31 135.57 32.09 136.26 31.64L136.26 36.9C136.12 36.97 135.98 37.03 135.84 37.08ZM122.49 11.22L122.49 11.22L122.49 11.22L122.49 11.22ZM110.91 41.85C110.05 44.14 108.92 45.79 107.52 46.8C106.13 47.81 104.46 48.32 102.53 48.32C102.23 48.32 101.91 48.3 101.55 48.25C101.47 48.24 101.38 48.23 101.29 48.22C101.21 48.2 101.12 48.19 101.04 48.17C100.95 48.15 100.87 48.14 100.78 48.12C100.7 48.1 100.61 48.07 100.53 48.05L98.39 42.08C98.51 42.14 98.64 42.19 98.77 42.24C98.9 42.3 99.03 42.35 99.16 42.39C99.29 42.44 99.42 42.48 99.55 42.52C99.68 42.56 99.81 42.6 99.95 42.63C100.48 42.77 100.99 42.84 101.46 42.84C102.47 42.84 103.39 42.61 104.22 42.14C105.06 41.68 105.69 40.83 106.14 39.58L107.03 36.99L97.1 11.22L104.09 11.22L110.02 27.81L115.59 11.22L122.49 11.22L110.91 41.85ZM78.79 7.34L78.79 15.64L95.31 15.64L95.31 21.25L78.78 21.25L78.78 37.04L72.02 37.04L72.02 1.41L95.54 1.41L95.54 7.34L78.79 7.34Z" />
			</g>
		</g>
	</g>
</svg>