<?xml version="1.0" standalone="no"?>
<!DOCTYPE svg PUBLIC "-//W3C//DTD SVG 20010904//EN"
 "http://www.w3.org/TR/2001/REC-SVG-20010904/DTD/svg10.dtd">
<svg version="1.0" xmlns="http://www.w3.org/2000/svg"
 width="446.000000pt" height="446.000000pt" viewBox="0 0 446.000000 446.000000"
 preserveAspectRatio="xMidYMid meet">
<metadata>
Created by potrace 1.14, written by Peter Selinger 2001-2017
</metadata>
<g transform="translate(0.000000,446.000000) scale(0.100000,-0.100000)"
fill="#000000" stroke="none">
<path d="M383 3043 l3 -1418 23 -80 c61 -215 117 -342 226 -510 358 -554 1055
-938 1840 -1015 146 -14 296 -16 610 -6 206 6 672 14 970 16 22 0 35 4 29 8
-6 4 -14 54 -17 112 -30 481 -237 787 -635 937 -78 29 -205 59 -287 68 -33 4
-69 9 -80 12 -11 4 -298 5 -637 4 l-618 -2 -1 138 c0 76 -2 487 -3 913 -2 426
-7 802 -10 835 -50 430 -207 774 -481 1050 -150 152 -314 254 -495 309 -111
34 -180 43 -323 45 l-118 2 4 -1418z m387 1120 c331 -108 620 -462 730 -894
47 -183 49 -220 49 -1188 l1 -913 -82 6 c-262 22 -463 107 -636 270 -84 80
-144 169 -180 268 l-27 73 -3 1208 -3 1208 38 -7 c21 -3 72 -17 113 -31z m218
-3127 c62 -31 157 -63 262 -89 82 -19 121 -21 965 -27 857 -6 883 -7 978 -29
239 -53 411 -164 506 -324 33 -56 83 -191 95 -254 l6 -33 -138 0 c-75 -1 -198
-3 -272 -5 -392 -10 -795 -13 -874 -5 -577 59 -1095 285 -1442 629 -81 80
-151 161 -140 161 4 0 28 -11 54 -24z"/>
</g>
</svg>
